<svg width="322" height="43" viewBox="0 0 322 43" fill="none" xmlns="http://www.w3.org/2000/svg">
<g clip-path="url(#clip0_20_934)">
<path d="M49.3832 35.2025L50.9465 30.9759H51.7643L53.3277 35.2025H52.5526L51.3505 31.8232L50.1484 35.2025H49.3865H49.3832ZM50.0795 34.2059L50.2732 33.6313H52.3818L52.5755 34.2059H50.0762H50.0795Z" fill="white"/>
<path d="M57.5086 35.2025V30.9759H59.049C59.3905 30.9759 59.673 31.0343 59.8996 31.1479C60.1229 31.2616 60.2904 31.4174 60.3988 31.6089C60.5072 31.8004 60.563 32.0244 60.563 32.2744C60.563 32.5081 60.5105 32.7224 60.4054 32.9172C60.3003 33.1119 60.1361 33.271 59.9094 33.3879C59.6861 33.508 59.3971 33.5664 59.049 33.5664H58.2443V35.2025H57.5119H57.5086ZM58.241 32.9756H59.0063C59.2953 32.9756 59.5022 32.9107 59.6303 32.7841C59.7551 32.6575 59.8208 32.4886 59.8208 32.2744C59.8208 32.0601 59.7584 31.8816 59.6303 31.755C59.5055 31.6316 59.2953 31.5667 59.0063 31.5667H58.241V32.9723V32.9756Z" fill="white"/>
<path d="M61.4958 35.2025L63.0591 30.9759H63.8769L65.4403 35.2025H64.6652L63.4631 31.8232L62.261 35.2025H61.4991H61.4958ZM62.1921 34.2059L62.3858 33.6313H64.4944L64.6882 34.2059H62.1888H62.1921Z" fill="white"/>
<path d="M67.0792 35.2025V30.9759H67.8116V34.6344H69.7165V35.2025H67.0792Z" fill="white"/>
<path d="M73.0468 35.2772C72.6363 35.2772 72.2717 35.1863 71.9564 35.0012C71.6411 34.8195 71.3948 34.563 71.2141 34.2351C71.0335 33.9073 70.9448 33.5275 70.9448 33.0925C70.9448 32.6575 71.0335 32.2809 71.2141 31.953C71.3948 31.6251 71.6411 31.3687 71.9564 31.1837C72.2717 30.9986 72.6363 30.9045 73.0468 30.9045C73.4573 30.9045 73.835 30.9986 74.1536 31.1837C74.4722 31.3687 74.7185 31.6251 74.8926 31.953C75.0667 32.2809 75.1553 32.6607 75.1553 33.0925C75.1553 33.5242 75.0667 33.9073 74.8926 34.2351C74.7185 34.563 74.4722 34.8195 74.1536 35.0012C73.835 35.183 73.4672 35.2772 73.0468 35.2772ZM73.0534 34.6247C73.326 34.6247 73.5657 34.563 73.7693 34.4396C73.973 34.3163 74.1306 34.141 74.239 33.9105C74.3474 33.68 74.4032 33.4073 74.4032 33.0892C74.4032 32.7711 74.3474 32.4984 74.239 32.2679C74.1306 32.0374 73.973 31.8621 73.7693 31.7388C73.5657 31.6154 73.326 31.5537 73.0534 31.5537C72.7808 31.5537 72.541 31.6154 72.3374 31.7388C72.1338 31.8621 71.9761 32.0374 71.8644 32.2679C71.7528 32.4984 71.6969 32.7711 71.6969 33.0892C71.6969 33.4073 71.7528 33.68 71.8644 33.9105C71.9761 34.141 72.1338 34.3163 72.3374 34.4396C72.541 34.563 72.7808 34.6247 73.0534 34.6247Z" fill="white"/>
<path d="M79.1786 35.2025L80.7419 30.9759H81.5597L83.1231 35.2025H82.348L81.1459 31.8232L79.9438 35.2025H79.1819H79.1786ZM79.8749 34.2059L80.0686 33.6313H82.1772L82.371 34.2059H79.8716H79.8749Z" fill="white"/>
<path d="M84.762 35.2025V30.9759H85.4944V34.6344H87.3993V35.2025H84.762Z" fill="white"/>
<path d="M89.4586 35.2025V31.5635H88.2007V30.9791H91.4456V31.5635H90.1877V35.2025H89.4619H89.4586Z" fill="white"/>
<path d="M94.8843 35.2772C94.4737 35.2772 94.1092 35.1863 93.7939 35.0012C93.4786 34.8195 93.2322 34.563 93.0516 34.2351C92.871 33.9073 92.7823 33.5275 92.7823 33.0925C92.7823 32.6575 92.871 32.2809 93.0516 31.953C93.2322 31.6251 93.4786 31.3687 93.7939 31.1837C94.1092 30.9986 94.4737 30.9045 94.8843 30.9045C95.2948 30.9045 95.6725 30.9986 95.9911 31.1837C96.3097 31.3687 96.556 31.6251 96.73 31.953C96.9041 32.2809 96.9928 32.6607 96.9928 33.0925C96.9928 33.5242 96.9041 33.9073 96.73 34.2351C96.556 34.563 96.3097 34.8195 95.9911 35.0012C95.6725 35.183 95.3047 35.2772 94.8843 35.2772ZM94.8875 34.6247C95.1601 34.6247 95.3999 34.563 95.6035 34.4396C95.8072 34.3163 95.9648 34.141 96.0732 33.9105C96.1816 33.68 96.2374 33.4073 96.2374 33.0892C96.2374 32.7711 96.1816 32.4984 96.0732 32.2679C95.9648 32.0374 95.8072 31.8621 95.6035 31.7388C95.3999 31.6154 95.1601 31.5537 94.8875 31.5537C94.6149 31.5537 94.3752 31.6154 94.1716 31.7388C93.9679 31.8621 93.8103 32.0374 93.6986 32.2679C93.587 32.4984 93.5311 32.7711 93.5311 33.0892C93.5311 33.4073 93.587 33.68 93.6986 33.9105C93.8103 34.141 93.9679 34.3163 94.1716 34.4396C94.3752 34.563 94.6149 34.6247 94.8875 34.6247Z" fill="white"/>
<path d="M101.295 35.2025V30.9759H102.028L104.087 34.0306V30.9759H104.819V35.2025H104.087L102.028 32.1543V35.2025H101.295Z" fill="white"/>
<path d="M106.731 35.2025V30.9759H109.493V31.5602H107.463V32.7743H109.309V33.3489H107.463V34.6182H109.493V35.2025H106.731Z" fill="white"/>
<path d="M112.308 35.2025V31.5635H111.05V30.9791H114.295V31.5635H113.037V35.2025H112.311H112.308Z" fill="white"/>
<path d="M116.81 35.2025L115.674 30.9759H116.456L117.257 34.3747L118.187 30.9759H118.998L119.894 34.3812L120.699 30.9759H121.487L120.321 35.2025H119.454L118.574 32.0017L117.671 35.2025H116.81Z" fill="white"/>
<path d="M124.896 35.2772C124.486 35.2772 124.121 35.1863 123.806 35.0012C123.491 34.8162 123.244 34.563 123.064 34.2351C122.883 33.9073 122.794 33.5275 122.794 33.0925C122.794 32.6575 122.883 32.2809 123.064 31.953C123.244 31.6251 123.491 31.3687 123.806 31.1837C124.121 30.9986 124.486 30.9045 124.896 30.9045C125.307 30.9045 125.685 30.9986 126.003 31.1837C126.322 31.3687 126.568 31.6251 126.742 31.953C126.916 32.2809 127.005 32.6607 127.005 33.0925C127.005 33.5242 126.916 33.9073 126.742 34.2351C126.568 34.563 126.322 34.8195 126.003 35.0012C125.685 35.183 125.317 35.2772 124.896 35.2772ZM124.903 34.6247C125.176 34.6247 125.415 34.563 125.619 34.4396C125.823 34.3163 125.98 34.141 126.089 33.9105C126.197 33.68 126.253 33.4073 126.253 33.0892C126.253 32.7711 126.197 32.4984 126.089 32.2679C125.977 32.0374 125.823 31.8621 125.619 31.7388C125.415 31.6154 125.176 31.5537 124.903 31.5537C124.63 31.5537 124.391 31.6154 124.187 31.7388C123.983 31.8621 123.826 32.0374 123.714 32.2679C123.602 32.4984 123.547 32.7711 123.547 33.0892C123.547 33.4073 123.602 33.68 123.714 33.9105C123.826 34.141 123.983 34.3163 124.187 34.4396C124.391 34.563 124.627 34.6247 124.903 34.6247Z" fill="white"/>
<path d="M128.769 35.2025V30.9759H130.302C130.641 30.9759 130.92 31.0343 131.143 31.1479C131.367 31.2616 131.531 31.4174 131.639 31.6057C131.748 31.7972 131.8 32.0114 131.8 32.2549C131.8 32.4789 131.748 32.6899 131.642 32.8814C131.537 33.0762 131.373 33.2288 131.147 33.3457C130.923 33.4625 130.634 33.521 130.286 33.521H129.504V35.1993H128.772L128.769 35.2025ZM129.504 32.9886H130.256C130.529 32.9886 130.729 32.9236 130.858 32.7938C130.986 32.6639 131.051 32.4919 131.051 32.2776C131.051 32.0634 130.989 31.9011 130.861 31.7745C130.736 31.6479 130.532 31.5829 130.256 31.5829H129.504V32.9886ZM130.999 35.2025L130.102 33.3359H130.897L131.836 35.2025H130.999Z" fill="white"/>
<path d="M133.607 35.2025V30.9759H134.339V32.7191L135.952 30.9759H136.861L135.278 32.6542L136.897 35.2025H136.004L134.759 33.2093L134.339 33.6638V35.2025H133.607Z" fill="white"/>
<path d="M139.962 35.2772C139.653 35.2772 139.377 35.222 139.137 35.1148C138.898 35.0077 138.71 34.8519 138.576 34.6506C138.441 34.4494 138.372 34.2091 138.369 33.9332H139.144C139.144 34.0728 139.177 34.1994 139.246 34.3098C139.311 34.4201 139.407 34.5078 139.528 34.5727C139.65 34.6376 139.794 34.6701 139.965 34.6701C140.113 34.6701 140.238 34.6474 140.346 34.6019C140.454 34.5565 140.536 34.4883 140.596 34.4039C140.655 34.3163 140.684 34.2156 140.684 34.0988C140.684 33.9657 140.651 33.8553 140.589 33.7709C140.527 33.6832 140.438 33.6118 140.33 33.5502C140.221 33.4885 140.093 33.4365 139.952 33.3911C139.811 33.3456 139.66 33.2969 139.499 33.2418C139.16 33.1281 138.907 32.9853 138.737 32.81C138.566 32.6347 138.48 32.401 138.48 32.1056C138.48 31.8589 138.54 31.6478 138.658 31.4726C138.776 31.294 138.94 31.1577 139.157 31.0603C139.371 30.9629 139.617 30.9109 139.899 30.9109C140.182 30.9109 140.435 30.9596 140.648 31.0603C140.862 31.1609 141.032 31.3005 141.154 31.479C141.279 31.6576 141.341 31.8718 141.348 32.1218H140.566C140.563 32.0179 140.533 31.9205 140.481 31.8296C140.428 31.7387 140.353 31.6641 140.251 31.6056C140.149 31.5472 140.031 31.518 139.886 31.518C139.765 31.5148 139.656 31.5342 139.561 31.5764C139.466 31.6186 139.39 31.6803 139.334 31.7582C139.279 31.8361 139.252 31.9335 139.252 32.0504C139.252 32.1672 139.279 32.2581 139.328 32.3296C139.377 32.401 139.453 32.4659 139.551 32.5178C139.65 32.5665 139.761 32.6152 139.893 32.6607C140.024 32.7061 140.165 32.7548 140.32 32.8068C140.53 32.8749 140.724 32.9593 140.898 33.0567C141.072 33.1541 141.21 33.284 141.312 33.4398C141.413 33.5956 141.466 33.8001 141.466 34.0501C141.466 34.2676 141.41 34.4688 141.295 34.6571C141.18 34.8454 141.013 34.9947 140.793 35.1116C140.573 35.2252 140.297 35.2837 139.968 35.2837L139.962 35.2772Z" fill="white"/>
<path d="M147.663 35.2772C147.24 35.2772 146.875 35.1863 146.566 35.0012C146.258 34.8195 146.021 34.563 145.857 34.2351C145.693 33.9073 145.611 33.5275 145.611 33.0957C145.611 32.6639 145.693 32.2809 145.857 31.953C146.021 31.6251 146.258 31.3687 146.566 31.1837C146.872 30.9986 147.24 30.9045 147.663 30.9045C148.172 30.9045 148.586 31.0278 148.908 31.2746C149.23 31.5213 149.434 31.8719 149.519 32.3231H148.714C148.659 32.0861 148.54 31.8978 148.366 31.7615C148.192 31.6251 147.956 31.557 147.657 31.557C147.388 31.557 147.158 31.6187 146.964 31.742C146.77 31.8654 146.622 32.0407 146.517 32.2744C146.412 32.5049 146.36 32.7808 146.36 33.0989C146.36 33.4171 146.412 33.6898 146.517 33.917C146.622 34.1442 146.77 34.3195 146.964 34.4429C147.158 34.5662 147.388 34.6279 147.657 34.6279C147.952 34.6279 148.189 34.563 148.366 34.4364C148.54 34.3098 148.659 34.1345 148.714 33.9073H149.519C149.437 34.3325 149.233 34.6701 148.911 34.9136C148.59 35.1571 148.172 35.2804 147.663 35.2804V35.2772Z" fill="white"/>
<path d="M153.234 35.2772C152.823 35.2772 152.459 35.1863 152.143 35.0012C151.828 34.8195 151.582 34.563 151.401 34.2351C151.22 33.9073 151.132 33.5275 151.132 33.0925C151.132 32.6575 151.22 32.2809 151.401 31.953C151.582 31.6251 151.828 31.3687 152.143 31.1837C152.459 30.9986 152.823 30.9045 153.234 30.9045C153.644 30.9045 154.022 30.9986 154.34 31.1837C154.659 31.3687 154.905 31.6251 155.079 31.953C155.254 32.2809 155.342 32.6607 155.342 33.0925C155.342 33.5242 155.254 33.9073 155.079 34.2351C154.905 34.563 154.659 34.8195 154.34 35.0012C154.022 35.183 153.654 35.2772 153.234 35.2772ZM153.24 34.6247C153.513 34.6247 153.753 34.563 153.956 34.4396C154.16 34.3163 154.318 34.141 154.426 33.9105C154.534 33.68 154.59 33.4073 154.59 33.0892C154.59 32.7711 154.534 32.4984 154.426 32.2679C154.314 32.0374 154.16 31.8621 153.956 31.7388C153.753 31.6154 153.513 31.5537 153.24 31.5537C152.968 31.5537 152.728 31.6154 152.524 31.7388C152.321 31.8621 152.163 32.0374 152.051 32.2679C151.94 32.4984 151.884 32.7711 151.884 33.0892C151.884 33.4073 151.94 33.68 152.051 33.9105C152.163 34.141 152.321 34.3163 152.524 34.4396C152.728 34.563 152.964 34.6247 153.24 34.6247Z" fill="white"/>
<path d="M157.106 35.2025V30.9759H157.973L159.343 33.706L160.699 30.9759H161.573V35.2025H160.84V32.2192L159.632 34.6084H159.057L157.842 32.2225V35.1993H157.109L157.106 35.2025Z" fill="white"/>
<path d="M163.487 35.2025V30.9759H165.028C165.369 30.9759 165.652 31.0343 165.878 31.1479C166.102 31.2616 166.269 31.4174 166.378 31.6089C166.489 31.8004 166.542 32.0244 166.542 32.2744C166.542 32.5081 166.489 32.7224 166.384 32.9172C166.279 33.1119 166.115 33.271 165.888 33.3879C165.665 33.508 165.376 33.5664 165.028 33.5664H164.223V35.2025H163.491H163.487ZM164.22 32.9756H164.982C165.271 32.9756 165.478 32.9107 165.606 32.7841C165.731 32.6575 165.796 32.4886 165.796 32.2744C165.796 32.0601 165.734 31.8816 165.606 31.755C165.478 31.6316 165.271 31.5667 164.982 31.5667H164.22V32.9723V32.9756Z" fill="white"/>
<path d="M167.478 35.2025L169.041 30.9759H169.859L171.422 35.2025H170.647L169.445 31.8232L168.243 35.2025H167.478ZM168.174 34.2059L168.368 33.6313H170.476L170.67 34.2059H168.171H168.174Z" fill="white"/>
<path d="M173.058 35.2025V30.9759H173.79L175.85 34.0306V30.9759H176.582V35.2025H175.85L173.79 32.1543V35.2025H173.058Z" fill="white"/>
<path d="M179.584 35.2025V33.68L178.162 30.9759H178.993L180.037 33.1249H179.879L180.924 30.9759H181.748L180.32 33.68V35.2025H179.587H179.584Z" fill="white"/>
<path d="M27.6573 17.6046L37.3297 12.0957L18.4645 1.31815L0.37439 11.6542V32.2452L18.4645 42.5358V42.5423L36.814 32.1056V20.1919L27.6573 25.4021V17.6013V17.6046ZM34.226 12.0989L26.8822 16.2736L19.2757 11.9172V3.55806L34.226 12.0989ZM19.2724 21.4968V13.6896L26.1005 17.5981V25.3988L19.2724 21.5001V21.4968ZM25.3222 26.7298L18.4645 30.6221H18.4579V30.6285L11.6068 26.7298L18.4579 22.8148L25.3254 26.7298H25.3222ZM17.6927 40.3219L2.73911 31.8167L10.0533 27.6323L17.6762 31.966L17.6927 40.3219ZM17.6532 13.6896V21.4968L10.8251 25.3956V17.5949L17.6532 13.6864V13.6896ZM2.70955 12.0989L17.6631 3.55806V11.9139L10.0566 16.2704L2.71283 12.0957L2.70955 12.0989ZM9.27821 17.6046V26.2883L1.93445 30.4922V13.4299L9.27821 17.6046ZM19.2429 40.3121L19.2593 31.9563V31.9498L35.2605 22.8375V31.2031L19.2461 40.3154L19.2429 40.3121Z" fill="white"/>
<path d="M137.203 9.09616H140.395L147.141 24.7691H143.522L142.08 21.2793H135.419L133.978 24.7691H130.447L137.193 9.09616H137.2H137.203ZM140.845 18.2538L138.756 13.2059L136.667 18.2538H140.852H140.845Z" fill="white"/>
<path d="M150.028 9.21304H157.224C159.224 9.21304 160.778 9.76491 161.809 10.794C162.686 11.6575 163.156 12.8813 163.156 14.3551V14.4006C163.156 16.9099 161.783 18.4908 159.783 19.2212L163.629 24.7756H159.579L156.206 19.7991H153.487V24.7756H150.025V9.21304H150.028ZM156.994 16.7671C158.682 16.7671 159.651 15.8776 159.651 14.5694V14.5239C159.651 13.0599 158.617 12.3035 156.932 12.3035H153.487V16.7736H156.994V16.7671Z" fill="white"/>
<path d="M167.412 9.21304H170.874V16.0107L177.255 9.21304H181.443L175.035 15.8094L181.732 24.7658H177.571L172.693 18.1467L170.874 20.0166V24.7756H167.412V9.21954V9.21304Z" fill="white"/>
<path d="M186.941 10.3654C186.941 10.5764 186.793 10.7225 186.507 10.7225H185.949V9.98888H186.494C186.77 9.98888 186.934 10.1122 186.934 10.3557M187.509 10.333C187.509 9.81033 187.125 9.50843 186.524 9.50843H185.404V12.0016H185.962V11.1997H186.402L186.937 12.0016H187.584L186.97 11.1056C187.292 10.9887 187.515 10.7388 187.515 10.3265M188.468 10.8167C188.468 11.9691 187.561 12.904 186.373 12.904C185.184 12.904 184.284 11.9756 184.284 10.8232C184.284 9.67074 185.18 8.73582 186.379 8.73582C187.578 8.73582 188.468 9.66425 188.468 10.8069M188.744 10.8167C188.744 9.53765 187.713 8.47937 186.379 8.47937C185.046 8.47937 184.008 9.54739 184.008 10.8232C184.008 12.0989 185.042 13.1605 186.373 13.1605C187.703 13.1605 188.744 12.0924 188.744 10.8167Z" fill="white"/>
<path d="M57.3707 24.795C52.8383 24.795 49.416 21.3443 49.416 16.7703C49.416 12.1963 52.8843 8.65143 57.4856 8.65143C60.517 8.65143 62.2052 9.77463 63.4335 10.9076L61.972 12.5826C60.4941 11.2809 59.0949 10.6998 57.4561 10.6998C54.244 10.6998 51.8267 13.2741 51.8267 16.6859C51.8267 20.0977 54.2998 22.7661 57.4561 22.7661C59.4529 22.7661 60.7667 21.974 62.0968 20.7729L63.5353 22.2305C61.6994 24.0614 59.9062 24.8113 57.3542 24.8113L57.3707 24.795Z" fill="white"/>
<path d="M71.5556 24.8112V18.6012L65.2103 9.02148H67.956L72.7577 16.5203L77.612 9.02148H80.2558L73.9335 18.4583L73.9105 24.8112H71.5556Z" fill="white"/>
<path d="M83.2347 24.8112V9.02148H90.457C92.2732 9.02148 93.715 9.49219 94.6313 10.3882C95.3309 11.0699 95.6692 11.8944 95.6692 12.9008C95.6692 14.4719 94.9598 15.5692 93.4326 16.3385L92.8217 16.6437L93.472 16.8547C95.6363 17.5786 96.6019 18.7148 96.6019 20.5619C96.6019 23.2238 94.3916 24.8112 90.6901 24.8112H83.2249H83.2314H83.2347ZM85.5436 22.8408H90.723C92.9662 22.8408 94.2471 21.9221 94.2471 20.3119C94.2471 18.7018 92.9202 17.7831 90.5062 17.7831H85.5436V22.8408ZM85.5436 15.9165H89.8625C92.0597 15.9165 93.3143 15.0043 93.3143 13.4104C93.3143 11.9042 92.0991 10.9985 90.0727 10.9985H85.5436V15.923V15.9165Z" fill="white"/>
<path d="M99.9487 24.8112V9.02148H111.165V11.0244H102.182V15.8451H110.143V17.848H102.182V22.8181H111.28V24.8112H99.9487Z" fill="white"/>
<path d="M125.806 24.8113L121.97 19.1108H118.118V24.8113H115.92V9.02148H122.604C124.433 9.02148 125.924 9.55387 126.92 10.5764C127.714 11.4334 128.131 12.5794 128.131 13.9071C128.131 16.2801 126.88 17.9519 124.601 18.6336L124.226 18.744L128.361 24.8145H125.8L125.806 24.8113ZM118.118 17.1339H122.404C124.525 17.1339 125.888 15.949 125.888 14.1116C125.888 12.1801 124.607 11.0634 122.381 11.0634H118.118V17.1339Z" fill="white"/>
</g>
<line x1="196.5" y1="1" x2="196.5" y2="42" stroke="white"/>
<path d="M217.145 12.0007C219.671 11.9698 222.113 12.8985 223.969 14.5805L222.501 16.0768C221.013 14.7972 219.105 14.0646 217.125 14.013C212.712 14.0852 209.191 17.6557 209.264 22C209.201 26.3341 212.723 29.8942 217.125 29.9561C219.116 29.9354 221.023 29.2028 222.501 27.8923L224 29.306C222.166 31.0602 219.703 32.0302 217.145 31.9993C211.538 31.9993 207 27.5311 207 22.0103C207 16.4896 211.538 12.0214 217.145 12.0214V12.0007Z" fill="white"/>
<path d="M236.969 12.0001C242.496 11.9794 246.979 16.4422 247 21.969C247.021 27.4958 242.558 31.9793 237.031 31.9999C231.504 32.0206 227.021 27.5578 227 22.031C226.969 16.5248 231.411 12.0311 236.928 12.0001C236.938 12.0001 236.959 12.0001 236.969 12.0001ZM236.969 30.0475C241.421 30.0681 245.037 26.4731 245.058 22.0207C245.078 17.5682 241.483 13.9525 237.031 13.9319C232.579 13.9112 228.963 17.5062 228.942 21.9587C228.942 21.9793 228.942 22.0103 228.942 22.031C228.984 26.4421 232.558 30.0061 236.969 30.0268V30.0475Z" fill="white"/>
<path d="M264.11 12.0275V27.611H264.061L252.958 12.0275H251V32H252.958V16.0861L264.042 32H266V12.0275H264.12H264.11Z" fill="white"/>
<path d="M278.819 12.0276V25.9907C278.819 28.9385 277.07 30.1279 275.362 30.1279C274.277 30.0141 273.287 29.4866 272.612 28.6489L271 29.9314C272.033 31.2346 273.624 32 275.31 32C278.619 32 281 29.7762 281 25.9079V12.0276H278.893C278.893 12.0276 278.819 11.9655 278.819 12.0276Z" fill="white"/>
<path d="M298.947 12.0273V24.3023C298.947 27.4426 297.042 29.8363 293.929 29.8363C290.816 29.8363 288.969 27.371 288.969 24.3023V12.0273H287.005V24.4353C286.858 28.4655 289.873 31.8412 293.742 31.9946C297.612 32.148 300.853 29.0077 301 24.9774C301 24.7933 301 24.6092 301 24.4353V12.0273H299.036C299.036 12.0273 298.947 11.9659 298.947 12.0273Z" fill="white"/>
<path d="M316.659 23.7445C319.066 22.8749 320.702 20.6015 320.774 18.0033C320.743 14.6613 318.058 11.9688 314.777 12.0003C314.766 12.0003 314.756 12.0003 314.746 12.0003H307V32H309.129V23.9959H314.417L318.356 32H321L316.659 23.7445ZM309.222 22.1416V14.0537H314.581C316.772 14.0537 318.552 15.8661 318.552 18.0976C318.552 20.3291 316.772 22.1416 314.581 22.1416H309.222Z" fill="white"/>
<defs>
<clipPath id="clip0_20_934">
<rect width="189" height="42" fill="white" transform="translate(0 1)"/>
</clipPath>
</defs>
</svg>
